<?xml version="1.0" encoding="UTF-8" standalone="no"?>
<svg
   xmlns:dc="http://purl.org/dc/elements/1.1/"
   xmlns:cc="http://creativecommons.org/ns#"
   xmlns:rdf="http://www.w3.org/1999/02/22-rdf-syntax-ns#"
   xmlns:svg="http://www.w3.org/2000/svg"
   xmlns="http://www.w3.org/2000/svg"
   xmlns:sodipodi="http://sodipodi.sourceforge.net/DTD/sodipodi-0.dtd"
   xmlns:inkscape="http://www.inkscape.org/namespaces/inkscape"
   version="1.1"
   width="64"
   height="64"
   viewbox="0 0 64 64"
   id="svg1435"
   sodipodi:docname="thunderstorm_white.svg"
   inkscape:version="1.0.2 (e86c870879, 2021-01-15)">
  <metadata
     id="metadata1439">
    <rdf:RDF>
      <cc:Work
         rdf:about="">
        <dc:format>image/svg+xml</dc:format>
        <dc:type
           rdf:resource="http://purl.org/dc/dcmitype/StillImage" />
        <dc:title></dc:title>
      </cc:Work>
    </rdf:RDF>
  </metadata>
  <sodipodi:namedview
     pagecolor="#ffffff"
     bordercolor="#666666"
     borderopacity="1"
     objecttolerance="10"
     gridtolerance="10"
     guidetolerance="10"
     inkscape:pageopacity="0"
     inkscape:pageshadow="2"
     inkscape:window-width="662"
     inkscape:window-height="718"
     id="namedview1437"
     showgrid="false"
     inkscape:zoom="8.828125"
     inkscape:cx="17.330973"
     inkscape:cy="32"
     inkscape:window-x="690"
     inkscape:window-y="12"
     inkscape:window-maximized="0"
     inkscape:current-layer="g1426" />
  <defs
     id="defs1418">
    <filter
       id="blur"
       width="200%"
       height="200%">
      <feGaussianBlur
         in="SourceAlpha"
         stdDeviation="3"
         id="feGaussianBlur1403" />
      <feOffset
         dx="0"
         dy="4"
         result="offsetblur"
         id="feOffset1405" />
      <feComponentTransfer
         id="feComponentTransfer1409">
        <feFuncA
           type="linear"
           slope="0.05"
           id="feFuncA1407" />
      </feComponentTransfer>
      <feMerge
         id="feMerge1415">
        <feMergeNode
           id="feMergeNode1411" />
        <feMergeNode
           in="SourceGraphic"
           id="feMergeNode1413" />
      </feMerge>
    </filter>
  </defs>
  <g
     filter="url(#blur)"
     id="thunder">
    <g
       transform="translate(20,10)"
       id="g1432">
      <g
         id="g1426">
        <path
           d="M47.7,35.4     c0-4.6-3.7-8.2-8.2-8.2c-1,0-1.9,0.2-2.8,0.5c-0.3-3.4-3.1-6.2-6.6-6.2c-3.7,0-6.7,3-6.7,6.7c0,0.8,0.2,1.6,0.4,2.3     c-0.3-0.1-0.7-0.1-1-0.1c-3.7,0-6.7,3-6.7,6.7c0,3.6,2.9,6.6,6.5,6.7l17.2,0C44.2,43.3,47.7,39.8,47.7,35.4z"
           fill="#57A0EE"
           stroke="#FFFFFF"
           stroke-linejoin="round"
           stroke-width="1.2"
           transform="translate(-20,-11)"
           id="path1424"
           style="fill:#ffffff;fill-opacity:1" />
      </g>
      <g
         transform="translate(-9,28), scale(1.2)"
         id="g1430">
        <polygon
           class="am-weather-stroke"
           fill="orange"
           stroke="white"
           stroke-width="1"
           points="14.3,-2.9 20.5,-2.9 16.4,4.3 20.3,4.3 11.5,14.6 14.9,6.9 11.1,6.9"
           id="polygon1428" />
      </g>
    </g>
  </g>
</svg>
